<svg width="20" height="20" viewBox="0 0 20 20" fill="none" xmlns="http://www.w3.org/2000/svg">
<path fill-rule="evenodd" clip-rule="evenodd" d="M7.10869 0.833008C4.60244 0.833008 2.66333 3.0296 2.9742 5.51649L4.40669 16.9764C4.56307 18.2275 5.62657 19.1663 6.88738 19.1663H13.1114C14.3722 19.1663 15.4358 18.2275 15.5921 16.9764L17.0246 5.51649C17.3355 3.0296 15.3964 0.833008 12.8901 0.833008H7.10869ZM4.75064 4.16634C5.09163 3.20426 6.0092 2.49967 7.10869 2.49967H12.8901C13.9896 2.49967 14.9072 3.20426 15.2482 4.16634H4.75064ZM4.6934 5.83301L6.06048 16.7697C6.11261 17.1867 6.46711 17.4997 6.88738 17.4997H13.1114C13.5317 17.4997 13.8862 17.1867 13.9383 16.7697L15.3054 5.83301H4.6934Z" fill="#4F4F4F"/>
<path d="M12.501 9.16471C12.1756 8.83928 11.648 8.83928 11.3225 9.16471L9.99943 10.4878L8.68282 9.17121C8.35738 8.84577 7.82974 8.84577 7.5043 9.17121C7.17887 9.49665 7.17887 10.0243 7.5043 10.3497L8.82092 11.6663L7.49942 12.9878C7.17398 13.3133 7.17398 13.8409 7.49942 14.1663C7.82486 14.4918 8.3525 14.4918 8.67793 14.1663L9.99943 12.8448L11.3225 14.168C11.648 14.4934 12.1756 14.4934 12.501 14.168C12.8265 13.8425 12.8265 13.3149 12.501 12.9894L11.1779 11.6663L12.501 10.3432C12.8265 10.0178 12.8265 9.49015 12.501 9.16471Z" fill="#4F4F4F"/>
</svg>
