<svg width="20" height="20" viewBox="0 0 20 20" fill="none" xmlns="http://www.w3.org/2000/svg">
<g clip-path="url(#clip0_7_894)">
<g clip-path="url(#clip1_7_894)">
<path d="M5.46702 0.621633C5.46702 0.277663 5.18936 0 4.84538 0H0.659719C0.315749 0 0.0380859 0.277663 0.0380859 0.621633V4.80937C0.0380859 5.15334 0.315749 5.431 0.659719 5.431H4.84746C5.19143 5.431 5.46909 5.15334 5.46909 4.80937V0.621633H5.46702Z" fill="#4F4F4F"/>
<path d="M12.7131 0.621633C12.7131 0.277663 12.4354 0 12.0915 0H7.90581C7.56184 0 7.28418 0.277663 7.28418 0.621633V4.80937C7.28418 5.15334 7.56184 5.431 7.90581 5.431H12.0915C12.4354 5.431 12.7131 5.15334 12.7131 4.80937V0.621633Z" fill="#4F4F4F"/>
<path d="M19.9592 0.621633C19.9592 0.277663 19.6815 0 19.3376 0H15.1519C14.8079 0 14.5303 0.277663 14.5303 0.621633V4.80937C14.5303 5.15334 14.8079 5.431 15.1519 5.431H19.3396C19.6836 5.431 19.9613 5.15334 19.9613 4.80937V0.621633H19.9592Z" fill="#4F4F4F"/>
<path d="M5.46702 7.90679C5.46702 7.56282 5.18936 7.28516 4.84538 7.28516H0.659719C0.315749 7.28516 0.0380859 7.56282 0.0380859 7.90679V12.0925C0.0380859 12.4364 0.315749 12.7141 0.659719 12.7141H4.84746C5.19143 12.7141 5.46909 12.4364 5.46909 12.0925V7.90679H5.46702Z" fill="#4F4F4F"/>
<path d="M12.7131 7.90679C12.7131 7.56282 12.4354 7.28516 12.0915 7.28516H7.90581C7.56184 7.28516 7.28418 7.56282 7.28418 7.90679V12.0925C7.28418 12.4364 7.56184 12.7141 7.90581 12.7141H12.0915C12.4354 12.7141 12.7131 12.4364 12.7131 12.0925V7.90679Z" fill="#4F4F4F"/>
<path d="M19.9592 7.90679C19.9592 7.56282 19.6815 7.28516 19.3376 7.28516H15.1519C14.8079 7.28516 14.5303 7.56282 14.5303 7.90679V12.0925C14.5303 12.4364 14.8079 12.7141 15.1519 12.7141H19.3396C19.6836 12.7141 19.9613 12.4364 19.9613 12.0925V7.90679H19.9592Z" fill="#4F4F4F"/>
<path d="M4.84538 14.5693H0.659719C0.315749 14.5693 0.0380859 14.847 0.0380859 15.191V19.3787C0.0380859 19.7227 0.315749 20.0003 0.659719 20.0003H4.84746C5.19143 20.0003 5.46909 19.7227 5.46909 19.3787V15.191C5.46702 14.8491 5.18936 14.5693 4.84538 14.5693Z" fill="#4F4F4F"/>
<path d="M12.0915 14.5693H7.90581C7.56184 14.5693 7.28418 14.847 7.28418 15.191V19.3787C7.28418 19.7227 7.56184 20.0003 7.90581 20.0003H12.0915C12.4354 20.0003 12.7131 19.7227 12.7131 19.3787V15.191C12.7131 14.8491 12.4354 14.5693 12.0915 14.5693Z" fill="#4F4F4F"/>
<path d="M19.3376 14.5693H15.1519C14.8079 14.5693 14.5303 14.847 14.5303 15.191V19.3787C14.5303 19.7227 14.8079 20.0003 15.1519 20.0003H19.3396C19.6836 20.0003 19.9613 19.7227 19.9613 19.3787V15.191C19.9592 14.8491 19.6815 14.5693 19.3376 14.5693Z" fill="#4F4F4F"/>
</g>
</g>
<defs>
<clipPath id="clip0_7_894">
<rect width="20" height="20" fill="white"/>
</clipPath>
<clipPath id="clip1_7_894">
<rect width="20" height="20" fill="white"/>
</clipPath>
</defs>
</svg>
