<svg width="15" height="11" viewBox="0 0 15 11" fill="none" xmlns="http://www.w3.org/2000/svg">
<path d="M13.7879 11H1.5354C0.847758 11 0.347656 10.4107 0.347656 9.75595V1.24405C0.347656 0.52381 0.910271 0 1.5354 0H13.7879C14.4755 0 14.9756 0.589286 14.9756 1.24405V9.75595C14.9756 10.4762 14.413 11 13.7879 11ZM1.5354 0.458334C1.16032 0.458334 0.785246 0.785714 0.785246 1.24405V9.75595C0.785246 10.2143 1.09781 10.5417 1.5354 10.5417H13.7879C14.2255 10.5417 14.5381 10.2143 14.5381 9.75595V1.24405C14.5381 0.785714 14.2255 0.458334 13.7879 0.458334H1.5354Z" fill="white"/>
<path d="M7.66177 5.76197C7.59926 5.76197 7.47423 5.69649 7.47423 5.63102C7.41172 5.50006 7.47423 5.36911 7.59926 5.30363L14.6632 1.70244C14.7882 1.63697 14.9133 1.70244 14.9758 1.8334C15.0383 1.96435 14.9758 2.0953 14.8507 2.16078L7.78679 5.76197C7.72428 5.76197 7.72428 5.76197 7.66177 5.76197Z" fill="white"/>
<path d="M7.66167 5.76173C7.59916 5.76173 7.59916 5.76173 7.53664 5.76173L0.535215 1.7022C0.41019 1.63673 0.41019 1.50578 0.472702 1.37482C0.535215 1.30935 0.660241 1.24387 0.785266 1.30935L7.7867 5.3034C7.91172 5.36887 7.91172 5.49982 7.91172 5.63078C7.84921 5.69625 7.72418 5.76173 7.66167 5.76173Z" fill="white"/>
</svg>
