<svg width="17" height="18" viewBox="0 0 17 18" fill="none" xmlns="http://www.w3.org/2000/svg">
<path fill-rule="evenodd" clip-rule="evenodd" d="M6.37565 6.87468H14.8757C15.6581 6.87468 16.2923 6.24041 16.2923 5.45801V2.62467C16.2923 1.84227 15.6581 1.20801 14.8757 1.20801H2.12565C1.34325 1.20801 0.708984 1.84227 0.708984 2.62467V15.3747C0.708984 16.1571 1.34325 16.7913 2.12565 16.7913H4.95899C5.74139 16.7913 6.37565 16.1571 6.37565 15.3747V6.87468ZM4.95899 12.5413V10.4163H4.25065C3.85945 10.4163 3.54232 10.0992 3.54232 9.70801C3.54232 9.31681 3.85945 8.99968 4.25065 8.99968H4.95899V6.87468H4.25065C3.85945 6.87468 3.54232 6.55754 3.54232 6.16634C3.54232 5.77514 3.85945 5.45801 4.25065 5.45801H4.95899V4.74968C4.95899 4.35847 5.27612 4.04134 5.66732 4.04134C6.05852 4.04134 6.37565 4.35847 6.37565 4.74968V5.45801H8.50065V4.74968C8.50065 4.35847 8.81778 4.04134 9.20899 4.04134C9.60019 4.04134 9.91732 4.35847 9.91732 4.74968V5.45801H12.0423V4.74968C12.0423 4.35847 12.3595 4.04134 12.7507 4.04134C13.1419 4.04134 13.459 4.35847 13.459 4.74968V5.45801H14.1673C14.5585 5.45801 14.8757 5.14088 14.8757 4.74968V3.33301C14.8757 2.94181 14.5585 2.62467 14.1673 2.62467H2.83398C2.44278 2.62467 2.12565 2.94181 2.12565 3.33301V14.6663C2.12565 15.0575 2.44278 15.3747 2.83398 15.3747H4.25065C4.64185 15.3747 4.95899 15.0575 4.95899 14.6663V13.958H4.25065C3.85945 13.958 3.54232 13.6409 3.54232 13.2497C3.54232 12.8585 3.85945 12.5413 4.25065 12.5413H4.95899Z" fill="#4F4F4F"/>
</svg>
