<svg width="24" height="24" viewBox="0 0 24 24" fill="none" xmlns="http://www.w3.org/2000/svg">
<path d="M11.7607 1.54004C11.836 1.30896 12.164 1.30896 12.2393 1.54004L14.3457 8.02344C14.4461 8.33179 14.7333 8.54102 15.0576 8.54102H21.874C22.1172 8.54118 22.2183 8.85215 22.0215 8.99512L16.5068 13.002C16.2446 13.1927 16.1342 13.5304 16.2344 13.8389L18.3408 20.3213C18.416 20.5526 18.1519 20.7451 17.9551 20.6025L12.4404 16.5957C12.178 16.405 11.822 16.405 11.5596 16.5957L6.04492 20.6025C5.84812 20.7451 5.58404 20.5526 5.65918 20.3213L7.76562 13.8389C7.86581 13.5304 7.75545 13.1927 7.49316 13.002L1.97852 8.99512C1.78174 8.85215 1.88282 8.54118 2.12598 8.54102H8.94238C9.26668 8.54102 9.55394 8.33179 9.6543 8.02344L11.7607 1.54004Z" stroke="#161515" stroke-width="0.497704"/>
</svg>
