<svg width="80" height="23" viewBox="0 0 80 23" fill="none" xmlns="http://www.w3.org/2000/svg">
<path d="M48.1703 14.9521C48.2749 17.7015 50.763 20.466 53.6172 20.466C54.7978 20.466 55.7616 20.1702 56.4864 19.6012C57.2037 19.0246 57.5697 18.2707 57.5697 17.3394C57.5697 16.5633 57.3306 15.9203 56.8599 15.4251C56.3818 14.9226 55.2908 14.3166 53.5872 13.6219C51.0394 12.5797 49.2985 11.5596 48.3719 10.5768C47.4453 9.59363 46.9822 8.35202 46.9822 6.8663C46.9822 5.01852 47.6546 3.50334 48.9995 2.32815C50.3444 1.15286 52.0778 0.598629 54.1998 0.561673C55.7614 0.532109 59.303 0.923838 60.4685 1.65556L60.4536 6.955H59.2805C59.2357 4.42723 57.0763 2.27631 54.5358 2.27631C53.4898 2.27631 52.6679 2.5351 52.0553 3.04499C51.4502 3.55498 51.1438 4.24974 51.1438 5.1219C51.1438 5.89796 51.383 6.52621 51.8536 7.00663C52.3243 7.49445 53.4376 8.08574 55.1786 8.78789C55.5302 8.93927 55.8865 9.07977 56.247 9.20919C58.0701 9.93352 59.3104 10.5765 59.9531 11.1456C60.6179 11.7591 61.1186 12.4244 61.4399 13.1486C61.7537 13.8655 61.918 14.6934 61.918 15.6321C61.918 17.6793 61.2007 19.3128 59.7736 20.5397C58.3465 21.7667 56.4038 22.3801 53.9756 22.3801C51.4353 22.3801 48.9545 21.9071 46.6458 20.8354V14.9669L48.1703 14.9521ZM66.252 15.0704C66.3566 17.8124 68.8447 20.5768 71.6914 20.5768C72.8794 20.5768 73.8433 20.2885 74.5606 19.7119C75.2852 19.1355 75.6514 18.3816 75.6514 17.4577C75.6514 16.6741 75.4122 16.0386 74.9341 15.5359C74.4634 15.0334 73.3726 14.4273 71.6691 13.7327C69.1211 12.6905 67.3802 11.6703 66.4536 10.6875C65.5271 9.70439 65.0565 8.47008 65.0565 6.98446C65.0565 5.13668 65.7364 3.6215 67.0738 2.44631C68.4188 1.26373 70.1596 0.709393 72.2816 0.672437C73.8433 0.642873 77.3849 1.0421 78.5429 1.76632L78.5355 7.06576H77.3625C77.3175 4.538 75.1508 2.39457 72.6103 2.39457C71.5717 2.39457 70.7424 2.65326 70.1372 3.16325C69.532 3.67323 69.2257 4.368 69.2257 5.23276C69.2257 6.00883 69.4648 6.64447 69.9355 7.12489C70.4063 7.60531 71.5195 8.204 73.2605 8.89866C73.4996 9.00224 73.8583 9.15006 74.3215 9.32745C76.1521 10.0444 77.3923 10.6948 78.0349 11.2564C78.6999 11.8774 79.2004 12.5425 79.5144 13.2594C79.8357 13.9764 80.0001 14.8117 80.0001 15.7502C80.0001 17.7977 79.2829 19.4311 77.8557 20.658C76.4211 21.8777 74.4858 22.4984 72.0502 22.4984C69.5099 22.4984 67.0291 22.018 64.7278 20.9464L64.7204 15.0852L66.252 15.0704ZM12.9261 10.6505C16.266 10.1996 17.7305 8.31486 17.7305 5.76492C17.7305 4.22018 17.185 3.03021 16.0942 2.21718C15.0108 1.39677 13.4342 0.982865 11.3795 0.990256L0.179322 0.997647V2.18033C1.53171 2.18033 2.61511 2.33554 2.61511 2.90466L2.60017 20.2295C2.03979 20.769 0.747176 20.843 0 20.843V22.0551H11.6335C15.0108 22.0551 18.4627 20.8209 18.8438 16.6966C19.1799 13.0156 16.9309 10.791 12.9261 10.6505ZM7.5912 2.36501C7.60614 2.36501 7.63614 2.35761 7.67339 2.35022C8.15158 2.32066 8.51023 2.30588 8.73438 2.30588C10.2511 2.30588 11.357 2.65326 12.0594 3.34063C12.7618 4.02062 13.1204 5.12918 13.1204 6.64447C13.1204 8.02661 12.7842 9.02441 12.1192 9.62309C11.4542 10.2292 10.3633 10.5322 8.85403 10.5322H7.5912V2.36501ZM7.5912 20.3106V11.8109H9.5488C11.7231 11.8109 13.8451 13.0008 13.8451 16.1716C13.8452 19.8227 10.7891 20.9021 7.5912 20.3106ZM40.5939 3.43662C38.6214 1.47807 35.8868 0.502441 32.3825 0.502441C28.9231 0.502441 26.2108 1.49285 24.2457 3.46628C22.2806 5.43971 21.2944 8.16704 21.2944 11.6409C21.2944 15.0038 22.2583 17.6352 24.186 19.5346C26.1137 21.434 28.796 22.3801 32.2405 22.3801C35.7822 22.3801 38.5541 21.4193 40.5566 19.5049C42.5589 17.5908 43.5601 14.9446 43.5601 11.5816C43.5602 8.10791 42.5665 5.38798 40.5939 3.43662ZM36.6414 18.0564C35.573 19.7342 34.1384 20.5768 32.3526 20.5768C30.6118 20.5768 29.2219 19.7342 28.1835 18.0639C27.1448 16.3936 26.6218 14.1169 26.6218 11.2565C26.6218 8.44061 27.1598 6.19371 28.2357 4.53071C29.3041 2.8677 30.7388 2.0399 32.5246 2.0399C34.2356 2.0399 35.6252 2.8751 36.6713 4.5381C37.7174 6.20839 38.2403 8.43322 38.2403 11.2048C38.2405 14.0947 37.7025 16.3786 36.6414 18.0564Z" fill="white"/>
</svg>
