<?xml version="1.0" encoding="UTF-8"?><!DOCTYPE svg PUBLIC "-//W3C//DTD SVG 1.1//EN" "http://www.w3.org/Graphics/SVG/1.1/DTD/svg11.dtd"><svg xmlns="http://www.w3.org/2000/svg" xmlns:xlink="http://www.w3.org/1999/xlink"><defs>
<clipPath id="clip0_7_894">
<rect width="20" height="20" fill="white"/>
</clipPath>
<clipPath id="clip1_7_894">
<rect width="20" height="20" fill="white"/>
</clipPath>

<clipPath id="clip0_7_908">
<rect width="20" height="20" fill="white"/>
</clipPath>
<clipPath id="clip1_7_908">
<rect width="20" height="20" fill="white"/>
</clipPath>
</defs><symbol id="arrow-next" viewBox="0 0 10 18"><g fill="none">
<path opacity="0.8" d="M0.317318 17.7079C0.740411 18.0974 1.42638 18.0974 1.84947 17.7079L9.04804 11.0809C10.317 9.91271 10.3174 8.01884 9.04893 6.85022L1.93067 0.292122C1.50758 -0.097374 0.821609 -0.097374 0.398517 0.292122C-0.0245743 0.68162 -0.0245743 1.31312 0.398517 1.70262L7.51863 8.25738C7.94172 8.64687 7.94172 9.27837 7.51863 9.66787L0.317318 16.2974C-0.105774 16.6869 -0.105774 17.3184 0.317318 17.7079Z" fill="#4F4F4F"/>
</g></symbol><symbol id="arrow-prev" viewBox="0 0 10 18"><g fill="none">
<path d="M8.48926 0.660156C8.72094 0.446871 9.11204 0.446911 9.34375 0.660156C9.5517 0.851599 9.5517 1.14352 9.34375 1.33496L2.14258 7.96387C1.5044 8.55138 1.50449 9.52279 2.14258 10.1104L9.2627 16.665C9.47065 16.8565 9.47064 17.1484 9.2627 17.3398C9.031 17.5531 8.63991 17.5531 8.4082 17.3398L1.29004 10.7822C0.236615 9.8117 0.237154 8.25729 1.29102 7.28711L8.48926 0.660156Z" fill="#4F4F4F" stroke="black"/>
</g></symbol><symbol id="basket" viewBox="0 0 20 20"><g fill="none">
<path fill-rule="evenodd" clip-rule="evenodd" d="M7.10869 0.833008C4.60244 0.833008 2.66333 3.0296 2.9742 5.51649L4.40669 16.9764C4.56307 18.2275 5.62657 19.1663 6.88738 19.1663H13.1114C14.3722 19.1663 15.4358 18.2275 15.5921 16.9764L17.0246 5.51649C17.3355 3.0296 15.3964 0.833008 12.8901 0.833008H7.10869ZM4.75064 4.16634C5.09163 3.20426 6.0092 2.49967 7.10869 2.49967H12.8901C13.9896 2.49967 14.9072 3.20426 15.2482 4.16634H4.75064ZM4.6934 5.83301L6.06048 16.7697C6.11261 17.1867 6.46711 17.4997 6.88738 17.4997H13.1114C13.5317 17.4997 13.8862 17.1867 13.9383 16.7697L15.3054 5.83301H4.6934Z" fill="#4F4F4F"/>
<path d="M12.501 9.16471C12.1756 8.83928 11.648 8.83928 11.3225 9.16471L9.99943 10.4878L8.68282 9.17121C8.35738 8.84577 7.82974 8.84577 7.5043 9.17121C7.17887 9.49665 7.17887 10.0243 7.5043 10.3497L8.82092 11.6663L7.49942 12.9878C7.17398 13.3133 7.17398 13.8409 7.49942 14.1663C7.82486 14.4918 8.3525 14.4918 8.67793 14.1663L9.99943 12.8448L11.3225 14.168C11.648 14.4934 12.1756 14.4934 12.501 14.168C12.8265 13.8425 12.8265 13.3149 12.501 12.9894L11.1779 11.6663L12.501 10.3432C12.8265 10.0178 12.8265 9.49015 12.501 9.16471Z" fill="#4F4F4F"/>
</g></symbol><symbol id="blog-comment" viewBox="0 0 20 20"><g fill="none">
<path d="M18 0.000976562H2C0.897 0.000976562 0 0.897977 0 2.00098V20.001L5.333 16.001H18C19.103 16.001 20 15.104 20 14.001V2.00098C20 0.897977 19.103 0.000976562 18 0.000976562ZM18 14.001H4.667L2 16.001V2.00098H18V14.001Z" fill="#3B2317"/>
</g></symbol><symbol id="blog-like" viewBox="0 0 24 24"><g fill="none">
<path d="M20 8.00098H14.388L15.511 4.63398C15.713 4.02598 15.611 3.35198 15.236 2.83198C14.861 2.31198 14.253 2.00098 13.612 2.00098H12C11.703 2.00098 11.422 2.13298 11.231 2.36098L6.531 8.00098H4C2.897 8.00098 2 8.89798 2 10.001V19.001C2 20.104 2.897 21.001 4 21.001H7H17.307C18.136 21.001 18.888 20.48 19.18 19.703L21.937 12.352C21.979 12.24 22 12.121 22 12.001V10.001C22 8.89798 21.103 8.00098 20 8.00098ZM4 10.001H6V19.001H4V10.001ZM20 11.82L17.307 19.001H8V9.36298L12.468 4.00098H13.614L12.052 8.68398C11.949 8.98898 12.001 9.32398 12.189 9.58498C12.377 9.84698 12.679 10.001 13 10.001H20V11.82Z" fill="#3B2317"/>
</g></symbol><symbol id="blog-share" viewBox="0 0 24 24"><g fill="none">
<path d="M5.5 15.001C6.41 15.001 7.233 14.643 7.857 14.071L14.117 17.648C14.048 17.923 14 18.205 14 18.501C14 20.431 15.57 22.001 17.5 22.001C19.43 22.001 21 20.431 21 18.501C21 16.571 19.43 15.001 17.5 15.001C16.59 15.001 15.767 15.359 15.143 15.931L8.883 12.354C8.946 12.107 8.986 11.852 8.991 11.586L15.142 8.07098C15.767 8.64298 16.59 9.00098 17.5 9.00098C19.43 9.00098 21 7.43098 21 5.50098C21 3.57098 19.43 2.00098 17.5 2.00098C15.57 2.00098 14 3.57098 14 5.50098C14 5.79698 14.048 6.07898 14.117 6.35398L8.433 9.60298C7.808 8.64098 6.729 8.00098 5.5 8.00098C3.57 8.00098 2 9.57098 2 11.501C2 13.431 3.57 15.001 5.5 15.001ZM17.5 17.001C18.327 17.001 19 17.674 19 18.501C19 19.328 18.327 20.001 17.5 20.001C16.673 20.001 16 19.328 16 18.501C16 17.674 16.673 17.001 17.5 17.001ZM17.5 4.00098C18.327 4.00098 19 4.67398 19 5.50098C19 6.32798 18.327 7.00098 17.5 7.00098C16.673 7.00098 16 6.32798 16 5.50098C16 4.67398 16.673 4.00098 17.5 4.00098ZM5.5 10.001C6.327 10.001 7 10.674 7 11.501C7 12.328 6.327 13.001 5.5 13.001C4.673 13.001 4 12.328 4 11.501C4 10.674 4.673 10.001 5.5 10.001Z" fill="#3B2317"/>
</g></symbol><symbol id="catalog-grid" viewBox="0 0 20 20"><g fill="none">
<g clip-path="url(#clip0_7_894)">
<g clip-path="url(#clip1_7_894)">
<path d="M5.46702 0.621633C5.46702 0.277663 5.18936 0 4.84538 0H0.659719C0.315749 0 0.0380859 0.277663 0.0380859 0.621633V4.80937C0.0380859 5.15334 0.315749 5.431 0.659719 5.431H4.84746C5.19143 5.431 5.46909 5.15334 5.46909 4.80937V0.621633H5.46702Z" fill="#4F4F4F"/>
<path d="M12.7131 0.621633C12.7131 0.277663 12.4354 0 12.0915 0H7.90581C7.56184 0 7.28418 0.277663 7.28418 0.621633V4.80937C7.28418 5.15334 7.56184 5.431 7.90581 5.431H12.0915C12.4354 5.431 12.7131 5.15334 12.7131 4.80937V0.621633Z" fill="#4F4F4F"/>
<path d="M19.9592 0.621633C19.9592 0.277663 19.6815 0 19.3376 0H15.1519C14.8079 0 14.5303 0.277663 14.5303 0.621633V4.80937C14.5303 5.15334 14.8079 5.431 15.1519 5.431H19.3396C19.6836 5.431 19.9613 5.15334 19.9613 4.80937V0.621633H19.9592Z" fill="#4F4F4F"/>
<path d="M5.46702 7.90679C5.46702 7.56282 5.18936 7.28516 4.84538 7.28516H0.659719C0.315749 7.28516 0.0380859 7.56282 0.0380859 7.90679V12.0925C0.0380859 12.4364 0.315749 12.7141 0.659719 12.7141H4.84746C5.19143 12.7141 5.46909 12.4364 5.46909 12.0925V7.90679H5.46702Z" fill="#4F4F4F"/>
<path d="M12.7131 7.90679C12.7131 7.56282 12.4354 7.28516 12.0915 7.28516H7.90581C7.56184 7.28516 7.28418 7.56282 7.28418 7.90679V12.0925C7.28418 12.4364 7.56184 12.7141 7.90581 12.7141H12.0915C12.4354 12.7141 12.7131 12.4364 12.7131 12.0925V7.90679Z" fill="#4F4F4F"/>
<path d="M19.9592 7.90679C19.9592 7.56282 19.6815 7.28516 19.3376 7.28516H15.1519C14.8079 7.28516 14.5303 7.56282 14.5303 7.90679V12.0925C14.5303 12.4364 14.8079 12.7141 15.1519 12.7141H19.3396C19.6836 12.7141 19.9613 12.4364 19.9613 12.0925V7.90679H19.9592Z" fill="#4F4F4F"/>
<path d="M4.84538 14.5693H0.659719C0.315749 14.5693 0.0380859 14.847 0.0380859 15.191V19.3787C0.0380859 19.7227 0.315749 20.0003 0.659719 20.0003H4.84746C5.19143 20.0003 5.46909 19.7227 5.46909 19.3787V15.191C5.46702 14.8491 5.18936 14.5693 4.84538 14.5693Z" fill="#4F4F4F"/>
<path d="M12.0915 14.5693H7.90581C7.56184 14.5693 7.28418 14.847 7.28418 15.191V19.3787C7.28418 19.7227 7.56184 20.0003 7.90581 20.0003H12.0915C12.4354 20.0003 12.7131 19.7227 12.7131 19.3787V15.191C12.7131 14.8491 12.4354 14.5693 12.0915 14.5693Z" fill="#4F4F4F"/>
<path d="M19.3376 14.5693H15.1519C14.8079 14.5693 14.5303 14.847 14.5303 15.191V19.3787C14.5303 19.7227 14.8079 20.0003 15.1519 20.0003H19.3396C19.6836 20.0003 19.9613 19.7227 19.9613 19.3787V15.191C19.9592 14.8491 19.6815 14.5693 19.3376 14.5693Z" fill="#4F4F4F"/>
</g>
</g>

</g></symbol><symbol id="catalog-line" viewBox="0 0 20 20"><g fill="none">
<g clip-path="url(#clip0_7_908)">
<g clip-path="url(#clip1_7_908)">
<path d="M5.07692 0H0V5H5.07692V0ZM20 0H7V5H20V0ZM0 7.5H5V12.5H0V7.5ZM20 7.5H7V12.5H20V7.5ZM0 15H5.07692V20H0V15ZM20 15H7V20H20V15Z" fill="#4F4F4F"/>
</g>
</g>

</g></symbol><symbol id="checkout-decor" viewBox="0 0 94 19"><g fill="none">
<path d="M0 9.4441L9.0559 0.5L18 9.4441L9.0559 18.5L0 9.4441Z" fill="#161515"/>
<path d="M38 9.4441L47.0559 0.5L56 9.4441L47.0559 18.5L38 9.4441Z" fill="#161515"/>
<path d="M76 9.4441L85.0559 0.5L94 9.4441L85.0559 18.5L76 9.4441Z" fill="#161515"/>
</g></symbol><symbol id="checkout-del" viewBox="0 0 18 18"><g fill="none">
<path d="M0.657862 0.677609C0.00698848 1.32848 0.00698843 2.38376 0.657863 3.03463L6.63312 9.00989L0.657859 14.9851C0.00698594 15.636 0.0069878 16.6913 0.657861 17.3422C1.30874 17.993 2.36401 17.993 3.01488 17.3422L8.99014 11.3669L14.9654 17.3421C15.6162 17.993 16.6715 17.993 17.3224 17.3421C17.9733 16.6913 17.9733 15.636 17.3224 14.9851L11.3472 9.00989L17.3224 3.03466C17.9733 2.38378 17.9733 1.32851 17.3224 0.677632C16.6715 0.0267592 15.6162 0.0267591 14.9654 0.677634L8.99014 6.65286L3.01488 0.677609C2.36401 0.0267338 1.30874 0.0267337 0.657862 0.677609Z" fill="#4F4F4F"/>
</g></symbol><symbol id="envelop" viewBox="0 0 15 11"><g fill="none">
<path d="M13.7879 11H1.5354C0.847758 11 0.347656 10.4107 0.347656 9.75595V1.24405C0.347656 0.52381 0.910271 0 1.5354 0H13.7879C14.4755 0 14.9756 0.589286 14.9756 1.24405V9.75595C14.9756 10.4762 14.413 11 13.7879 11ZM1.5354 0.458334C1.16032 0.458334 0.785246 0.785714 0.785246 1.24405V9.75595C0.785246 10.2143 1.09781 10.5417 1.5354 10.5417H13.7879C14.2255 10.5417 14.5381 10.2143 14.5381 9.75595V1.24405C14.5381 0.785714 14.2255 0.458334 13.7879 0.458334H1.5354Z" fill="white"/>
<path d="M7.66177 5.76197C7.59926 5.76197 7.47423 5.69649 7.47423 5.63102C7.41172 5.50006 7.47423 5.36911 7.59926 5.30363L14.6632 1.70244C14.7882 1.63697 14.9133 1.70244 14.9758 1.8334C15.0383 1.96435 14.9758 2.0953 14.8507 2.16078L7.78679 5.76197C7.72428 5.76197 7.72428 5.76197 7.66177 5.76197Z" fill="white"/>
<path d="M7.66167 5.76173C7.59916 5.76173 7.59916 5.76173 7.53664 5.76173L0.535215 1.7022C0.41019 1.63673 0.41019 1.50578 0.472702 1.37482C0.535215 1.30935 0.660241 1.24387 0.785266 1.30935L7.7867 5.3034C7.91172 5.36887 7.91172 5.49982 7.91172 5.63078C7.84921 5.69625 7.72418 5.76173 7.66167 5.76173Z" fill="white"/>
</g></symbol><symbol id="facebook" viewBox="0 0 26 26"><g fill="none">
<path d="M13 25C6.42609 25 1 19.5739 1 13C1 6.42609 6.42609 1 13 1C19.5739 1 25 6.42609 25 13C25 19.5739 19.5739 25 13 25Z" stroke="white" stroke-width="0.6875" stroke-miterlimit="10" stroke-linecap="round" stroke-linejoin="round"/>
<path d="M15.5044 7.05176C13.5218 7.05176 11.9565 8.61697 11.9565 10.5996V19.3648" stroke="white" stroke-width="0.6875" stroke-miterlimit="10" stroke-linecap="round" stroke-linejoin="round"/>
<path d="M10.2861 13.208H15.0861" stroke="white" stroke-width="0.6875" stroke-miterlimit="10" stroke-linecap="round" stroke-linejoin="round"/>
</g></symbol><symbol id="grid-btn" viewBox="0 0 40 40"><g fill="none">
<path d="M15.9375 3.75H5.3125C4.44956 3.75 3.75 4.44956 3.75 5.3125V15.9375C3.75 16.8004 4.44956 17.5 5.3125 17.5H15.9375C16.8004 17.5 17.5 16.8004 17.5 15.9375V5.3125C17.5 4.44956 16.8004 3.75 15.9375 3.75Z" stroke="#161515" stroke-width="2" stroke-linecap="round" stroke-linejoin="round"/>
<path d="M34.6875 3.75H24.0625C23.1996 3.75 22.5 4.44956 22.5 5.3125V15.9375C22.5 16.8004 23.1996 17.5 24.0625 17.5H34.6875C35.5504 17.5 36.25 16.8004 36.25 15.9375V5.3125C36.25 4.44956 35.5504 3.75 34.6875 3.75Z" stroke="#161515" stroke-width="2" stroke-linecap="round" stroke-linejoin="round"/>
<path d="M15.9375 22.5H5.3125C4.44956 22.5 3.75 23.1996 3.75 24.0625V34.6875C3.75 35.5504 4.44956 36.25 5.3125 36.25H15.9375C16.8004 36.25 17.5 35.5504 17.5 34.6875V24.0625C17.5 23.1996 16.8004 22.5 15.9375 22.5Z" stroke="#161515" stroke-width="2" stroke-linecap="round" stroke-linejoin="round"/>
<path d="M34.6875 22.5H24.0625C23.1996 22.5 22.5 23.1996 22.5 24.0625V34.6875C22.5 35.5504 23.1996 36.25 24.0625 36.25H34.6875C35.5504 36.25 36.25 35.5504 36.25 34.6875V24.0625C36.25 23.1996 35.5504 22.5 34.6875 22.5Z" stroke="#161515" stroke-width="2" stroke-linecap="round" stroke-linejoin="round"/>
</g></symbol><symbol id="heart" viewBox="0 0 24 21"><g fill="none">
<path d="M10.5844 20.4285L10.4672 20.3181L2.25469 12.5045C0.815625 11.1358 0 9.21483 0 7.20261V7.04413C0 3.66322 2.34375 0.762546 5.5875 0.128625C7.43437 -0.23636 9.32344 0.200662 10.8281 1.28601C11.25 1.59337 11.6438 1.94875 12 2.35695C12.1969 2.12644 12.4078 1.91513 12.6328 1.71823C12.8062 1.56455 12.9844 1.42048 13.1719 1.28601C14.6766 0.200662 16.5656 -0.23636 18.4125 0.123823C21.6562 0.757744 24 3.66322 24 7.04413V7.20261C24 9.21483 23.1844 11.1358 21.7453 12.5045L13.5328 20.3181L13.4156 20.4285C13.0313 20.7935 12.525 21 12 21C11.475 21 10.9688 20.7983 10.5844 20.4285ZM11.2078 4.90705C11.1891 4.89264 11.175 4.87343 11.1609 4.85422L10.3266 3.89373L10.3219 3.88893C9.23906 2.6451 7.60312 2.07841 6.00937 2.39057C3.825 2.81799 2.25 4.76778 2.25 7.04413V7.20261C2.25 8.5713 2.80781 9.88237 3.7875 10.814L12 18.6276L20.2125 10.814C20.6973 10.3526 21.084 9.79382 21.3485 9.17245C21.6131 8.55108 21.7497 7.88051 21.75 7.20261V7.04413C21.75 4.77258 20.175 2.81799 17.9953 2.39057C16.4016 2.07841 14.7609 2.6499 13.6828 3.88893L13.6781 3.89373L13.6734 3.89854L12.8391 4.85902C12.825 4.87823 12.8062 4.89264 12.7922 4.91185C12.5812 5.12796 12.2953 5.24802 12 5.24802C11.7047 5.24802 11.4188 5.12796 11.2078 4.91185V4.90705Z" fill="#CDCDCD"/>
</g></symbol><symbol id="icon-size" viewBox="0 0 17 18"><g fill="none">
<path fill-rule="evenodd" clip-rule="evenodd" d="M6.37565 6.87468H14.8757C15.6581 6.87468 16.2923 6.24041 16.2923 5.45801V2.62467C16.2923 1.84227 15.6581 1.20801 14.8757 1.20801H2.12565C1.34325 1.20801 0.708984 1.84227 0.708984 2.62467V15.3747C0.708984 16.1571 1.34325 16.7913 2.12565 16.7913H4.95899C5.74139 16.7913 6.37565 16.1571 6.37565 15.3747V6.87468ZM4.95899 12.5413V10.4163H4.25065C3.85945 10.4163 3.54232 10.0992 3.54232 9.70801C3.54232 9.31681 3.85945 8.99968 4.25065 8.99968H4.95899V6.87468H4.25065C3.85945 6.87468 3.54232 6.55754 3.54232 6.16634C3.54232 5.77514 3.85945 5.45801 4.25065 5.45801H4.95899V4.74968C4.95899 4.35847 5.27612 4.04134 5.66732 4.04134C6.05852 4.04134 6.37565 4.35847 6.37565 4.74968V5.45801H8.50065V4.74968C8.50065 4.35847 8.81778 4.04134 9.20899 4.04134C9.60019 4.04134 9.91732 4.35847 9.91732 4.74968V5.45801H12.0423V4.74968C12.0423 4.35847 12.3595 4.04134 12.7507 4.04134C13.1419 4.04134 13.459 4.35847 13.459 4.74968V5.45801H14.1673C14.5585 5.45801 14.8757 5.14088 14.8757 4.74968V3.33301C14.8757 2.94181 14.5585 2.62467 14.1673 2.62467H2.83398C2.44278 2.62467 2.12565 2.94181 2.12565 3.33301V14.6663C2.12565 15.0575 2.44278 15.3747 2.83398 15.3747H4.25065C4.64185 15.3747 4.95899 15.0575 4.95899 14.6663V13.958H4.25065C3.85945 13.958 3.54232 13.6409 3.54232 13.2497C3.54232 12.8585 3.85945 12.5413 4.25065 12.5413H4.95899Z" fill="#4F4F4F"/>
</g></symbol><symbol id="instagram" viewBox="0 0 26 26"><g fill="none">
<path d="M13 25C6.42609 25 1 19.5739 1 13C1 6.42609 6.42609 1 13 1C19.5739 1 25 6.42609 25 13C25 19.5739 19.5739 25 13 25Z" stroke="white" stroke-width="0.6875" stroke-miterlimit="10" stroke-linecap="round" stroke-linejoin="round"/>
<path d="M16.3083 6.95833C16.8145 6.95833 17.2249 6.54793 17.2249 6.04167C17.2249 5.53541 16.8145 5.125 16.3083 5.125C15.802 5.125 15.3916 5.53541 15.3916 6.04167C15.3916 6.54793 15.802 6.95833 16.3083 6.95833Z" stroke="white" stroke-width="0.6875" stroke-miterlimit="10" stroke-linecap="round" stroke-linejoin="round"/>
<path d="M10.4414 15.3914H12.6414C14.1081 15.3914 15.3914 14.1081 15.3914 12.6414V10.4414C15.3914 8.97474 14.1081 7.69141 12.6414 7.69141H10.4414C8.97474 7.69141 7.69141 8.97474 7.69141 10.4414V12.6414C7.69141 14.1997 8.88307 15.3914 10.4414 15.3914Z" stroke="white" stroke-width="0.6875" stroke-miterlimit="10" stroke-linecap="round" stroke-linejoin="round"/>
</g></symbol><symbol id="line-btn" viewBox="0 0 40 40"><g fill="none">
<path d="M13.3333 10H35M13.3333 20H35M13.3333 30H35M5 10H5.01667M5 20H5.01667M5 30H5.01667" stroke="#161515" stroke-width="2" stroke-linecap="round" stroke-linejoin="round"/>
</g></symbol><symbol id="mobaile-btn" viewBox="0 0 30 19"><g fill="none">
<line y1="1.5" x2="30" y2="1.5" stroke="black" stroke-width="2"/>
<line y1="9.5" x2="30" y2="9.5" stroke="black" stroke-width="2"/>
<line y1="17.5" x2="30" y2="17.5" stroke="black" stroke-width="2"/>
</g></symbol><symbol id="page-404-arrow" viewBox="0 0 90 90"><g fill="none">
<circle cx="45" cy="45" r="44.5" stroke="#161515"/>
<path d="M31.5236 58.8337C31.8538 59.1556 32.2991 59.3321 32.7602 59.3237C33.22 59.3246 33.6625 59.1492 33.9969 58.8337L55.7669 37.0432V55.847C55.7669 56.8135 56.5504 57.597 57.5169 57.597C57.9869 57.6098 58.4419 57.4303 58.7765 57.1C59.1112 56.7697 59.2968 56.3172 59.2902 55.847V33.1385C59.3508 32.8723 59.3494 32.591 59.2795 32.317C59.1211 31.697 58.6369 31.2128 58.0169 31.0545C57.7429 30.9845 57.4616 30.9831 57.1954 31.0437H34.4869C33.5204 31.0437 32.7369 31.8272 32.7369 32.7937C32.7369 33.7602 33.5204 34.5437 34.4869 34.5437H53.3169L31.5236 56.337C31.1887 56.6661 31 57.1159 31 57.5854C31 58.0549 31.1887 58.5047 31.5236 58.8337Z" fill="#161515"/>
</g></symbol><symbol id="pagination-next" viewBox="0 0 12 5"><g fill="none">
<path d="M9.21927 4.4C9.37927 4.05867 9.53394 3.76 9.68327 3.504C9.84327 3.248 9.99794 3.03467 10.1473 2.864H0.819274V2.192H10.1473C9.99794 2.01067 9.84327 1.792 9.68327 1.536C9.53394 1.28 9.37927 0.986666 9.21927 0.656H9.77927C10.4513 1.43467 11.1553 2.01067 11.8913 2.384V2.672C11.1553 3.03467 10.4513 3.61067 9.77927 4.4H9.21927Z" fill="#513C27"/>
</g></symbol><symbol id="pagination-prev" viewBox="0 0 12 5"><g fill="none">
<path d="M3.49166 4.4C3.33166 4.05867 3.177 3.76 3.02766 3.504C2.86766 3.248 2.713 3.03467 2.56366 2.864H11.8917V2.192H2.56366C2.713 2.01067 2.86766 1.792 3.02766 1.536C3.177 1.28 3.33166 0.986666 3.49166 0.656H2.93166C2.25966 1.43467 1.55566 2.01067 0.819663 2.384V2.672C1.55566 3.03467 2.25966 3.61067 2.93166 4.4H3.49166Z" fill="#513C27"/>
</g></symbol><symbol id="rewiews-next" viewBox="0 0 25 16"><g fill="none">
<path d="M24.2005 8.00011L16.7339 0.533447M24.2005 8.00011L16.7339 15.4668M24.2005 8.00011H0.867188" stroke="#161515"/>
</g></symbol><symbol id="rewiews-prev" viewBox="0 0 25 16"><g fill="none">
<path d="M0.799479 8.00011L8.26615 0.533447M0.799479 8.00011L8.26615 15.4668M0.799479 8.00011H24.1328" stroke="#161515"/>
</g></symbol><symbol id="rewiews-star-disable" viewBox="0 0 24 24"><g fill="none">
<path d="M11.7607 1.54004C11.836 1.30896 12.164 1.30896 12.2393 1.54004L14.3457 8.02344C14.4461 8.33179 14.7333 8.54102 15.0576 8.54102H21.874C22.1172 8.54118 22.2183 8.85215 22.0215 8.99512L16.5068 13.002C16.2446 13.1927 16.1342 13.5304 16.2344 13.8389L18.3408 20.3213C18.416 20.5526 18.1519 20.7451 17.9551 20.6025L12.4404 16.5957C12.178 16.405 11.822 16.405 11.5596 16.5957L6.04492 20.6025C5.84812 20.7451 5.58404 20.5526 5.65918 20.3213L7.76562 13.8389C7.86581 13.5304 7.75545 13.1927 7.49316 13.002L1.97852 8.99512C1.78174 8.85215 1.88282 8.54118 2.12598 8.54102H8.94238C9.26668 8.54102 9.55394 8.33179 9.6543 8.02344L11.7607 1.54004Z" stroke="#161515" stroke-width="0.497704"/>
</g></symbol><symbol id="rewiews-star" viewBox="0 0 24 24"><g fill="none">
<path d="M11.5245 1.46353C11.6741 1.00287 12.3259 1.00287 12.4755 1.46353L14.5819 7.9463C14.6488 8.15232 14.8408 8.2918 15.0574 8.2918H21.8738C22.3582 8.2918 22.5596 8.9116 22.1677 9.1963L16.6531 13.2029C16.4779 13.3302 16.4046 13.5559 16.4715 13.7619L18.5779 20.2447C18.7276 20.7053 18.2003 21.0884 17.8085 20.8037L12.2939 16.7971C12.1186 16.6698 11.8814 16.6698 11.7061 16.7971L6.19153 20.8037C5.79967 21.0884 5.27243 20.7053 5.42211 20.2447L7.52849 13.7619C7.59543 13.5559 7.5221 13.3302 7.34685 13.2029L1.83227 9.1963C1.44041 8.9116 1.6418 8.2918 2.12616 8.2918H8.94256C9.15917 8.2918 9.35115 8.15232 9.41809 7.9463L11.5245 1.46353Z" fill="#161515"/>
</g></symbol><symbol id="search" viewBox="0 0 18 18"><g fill="none">
<path d="M17.3996 17.4L12.5996 12.6M7.79961 15C3.82316 15 0.599609 11.7764 0.599609 7.79998C0.599609 3.82353 3.82316 0.599976 7.79961 0.599976C11.7761 0.599976 14.9996 3.82353 14.9996 7.79998C14.9996 11.7764 11.7761 15 7.79961 15Z" stroke="#161515"/>
</g></symbol><symbol id="shopping-bag" viewBox="0 0 24 24"><g fill="none">
<path fill-rule="evenodd" clip-rule="evenodd" d="M16.5286 5.99961C16.5099 5.91891 16.4904 5.83803 16.4702 5.75708C16.2062 4.70099 15.7904 3.55344 15.1126 2.64961C14.4136 1.71763 13.3929 0.999611 12.0001 0.999611C10.6072 0.999611 9.58654 1.71763 8.88756 2.64961C8.20969 3.55344 7.79394 4.70099 7.52991 5.75708C7.50968 5.83803 7.49022 5.91891 7.47151 5.99961H5.87116C4.29177 5.99961 2.98287 7.22416 2.87781 8.80005L2.14448 19.8001C2.02904 21.5316 3.40244 22.9996 5.13783 22.9996H18.8623C20.5977 22.9996 21.9711 21.5316 21.8556 19.8001L21.1223 8.80005C21.0172 7.22416 19.7083 5.99961 18.129 5.99961H16.5286ZM8.00006 10.9996C8.57304 10.9996 8.99812 10.568 9.00007 9.99778C9.00022 9.974 9.0005 9.95021 9.0009 9.92643C9.00178 9.87374 9.00357 9.79416 9.00724 9.69155C9.01457 9.48613 9.02936 9.1896 9.05911 8.83266C9.08021 8.57937 9.10865 8.29823 9.1468 7.99961H14.8533C14.8915 8.29823 14.9199 8.57937 14.941 8.83266C14.9708 9.1896 14.9855 9.48613 14.9929 9.69155C14.9965 9.79416 14.9983 9.87374 14.9992 9.92643C14.9996 9.95095 15 9.97548 15.0001 10C15.0001 10 15.0001 10.9996 16.0001 10.9996C17.0001 10.9996 17.0001 9.99827 17.0001 9.99827C17 9.96321 16.9995 9.92815 16.9989 9.8931C16.9979 9.82861 16.9958 9.73631 16.9916 9.62017C16.9833 9.38809 16.9669 9.05962 16.9341 8.66657C16.917 8.46163 16.8954 8.23773 16.868 7.99961H18.129C18.6554 7.99961 19.0917 8.40779 19.1267 8.93309L19.8601 19.9331C19.8986 20.5103 19.4408 20.9996 18.8623 20.9996H5.13783C4.55937 20.9996 4.10157 20.5103 4.14005 19.9331L4.87338 8.93309C4.9084 8.40779 5.3447 7.99961 5.87116 7.99961H7.13214C7.10471 8.23773 7.08309 8.46163 7.06601 8.66657C7.03326 9.05962 7.0168 9.38809 7.00851 9.62017C7.00436 9.73631 7.00225 9.82861 7.00118 9.8931C7.0006 9.92746 7.00017 9.96182 7.00007 9.99619C6.9993 10.5668 7.42839 10.9996 8.00006 10.9996ZM9.53358 5.99961H14.4665C14.2353 5.15283 13.9211 4.39427 13.5126 3.84961C13.0865 3.28159 12.6072 2.99961 12.0001 2.99961C11.3929 2.99961 10.9136 3.28159 10.4876 3.84961C10.0791 4.39427 9.76479 5.15283 9.53358 5.99961Z" fill="#161515"/>
</g></symbol><symbol id="user" viewBox="0 0 24 24"><g fill="none">
<path fill-rule="evenodd" clip-rule="evenodd" d="M12 11.9996C14.7614 11.9996 17 9.53717 17 6.49961C17 3.46204 14.7614 0.999611 12 0.999611C9.23858 0.999611 7 3.46204 7 6.49961C7 9.53717 9.23858 11.9996 12 11.9996ZM12 9.79961C10.3431 9.79961 9 8.32215 9 6.49961C9 4.67707 10.3431 3.19961 12 3.19961C13.6569 3.19961 15 4.67707 15 6.49961C15 8.32215 13.6569 9.79961 12 9.79961Z" fill="#161515"/>
<path fill-rule="evenodd" clip-rule="evenodd" d="M19.1029 14.1083C18.2604 13.263 16.957 13.0807 15.9161 13.6983C15.7257 13.8113 15.5581 13.9147 15.4036 14.0101C14.9937 14.2631 14.6755 14.4594 14.2654 14.6279C13.75 14.8397 13.0835 14.9996 12 14.9996C10.9268 14.9996 10.2493 14.8487 9.72609 14.6443C9.26355 14.4636 8.89822 14.2366 8.41685 13.9375C8.32296 13.8791 8.22448 13.8179 8.12019 13.7539C7.07587 13.1128 5.73464 13.2618 4.86415 14.1415C4.48443 14.5252 4.04036 15.0215 3.6849 15.5622C3.34603 16.0777 3 16.7634 3 17.4996V19.9999C3 21.657 4.34334 22.9996 6 22.9996H18C19.6567 22.9996 21 21.657 21 19.9999V17.4996C21 16.7537 20.6447 16.0588 20.2996 15.5387C19.937 14.9924 19.4852 14.4919 19.1029 14.1083ZM16.9367 15.4183C17.1759 15.2764 17.478 15.3112 17.6863 15.5201C18.0214 15.8564 18.3724 16.2517 18.6331 16.6446C18.9113 17.0638 19 17.3516 19 17.4996V19.9999C19 20.552 18.5525 20.9996 18 20.9996H6C5.44752 20.9996 5 20.552 5 19.9999V17.4996C5 17.3545 5.08549 17.0726 5.35613 16.6609C5.61017 16.2744 5.95358 15.884 6.28579 15.5483C6.49412 15.3377 6.81106 15.297 7.07389 15.4584C7.15661 15.5092 7.24087 15.5617 7.32694 15.6155C7.80938 15.9167 8.34918 16.2536 8.99836 16.5072C9.79304 16.8177 10.7242 16.9996 12 16.9996C13.3002 16.9996 14.2313 16.8042 15.0254 16.4779C15.6006 16.2416 16.1079 15.9278 16.5558 15.6508C16.6879 15.5691 16.8148 15.4906 16.9367 15.4183Z" fill="#161515"/>
</g></symbol><symbol id="wishlist" viewBox="0 0 24 22"><g fill="none">
<path d="M10.5844 20.9285L10.4672 20.8181L2.25469 13.0045C0.815625 11.6358 0 9.71483 0 7.70261V7.54413C0 4.16322 2.34375 1.26255 5.5875 0.628625C7.43437 0.26364 9.32344 0.700662 10.8281 1.78601C11.25 2.09337 11.6438 2.44875 12 2.85695C12.1969 2.62644 12.4078 2.41513 12.6328 2.21823C12.8062 2.06455 12.9844 1.92048 13.1719 1.78601C14.6766 0.700662 16.5656 0.26364 18.4125 0.623823C21.6562 1.25774 24 4.16322 24 7.54413V7.70261C24 9.71483 23.1844 11.6358 21.7453 13.0045L13.5328 20.8181L13.4156 20.9285C13.0313 21.2935 12.525 21.5 12 21.5C11.475 21.5 10.9688 21.2983 10.5844 20.9285ZM11.2078 5.40705C11.1891 5.39264 11.175 5.37343 11.1609 5.35422L10.3266 4.39373L10.3219 4.38893C9.23906 3.1451 7.60312 2.57841 6.00937 2.89057C3.825 3.31799 2.25 5.26778 2.25 7.54413V7.70261C2.25 9.0713 2.80781 10.3824 3.7875 11.314L12 19.1276L20.2125 11.314C20.6973 10.8526 21.084 10.2938 21.3485 9.67245C21.6131 9.05108 21.7497 8.38051 21.75 7.70261V7.54413C21.75 5.27258 20.175 3.31799 17.9953 2.89057C16.4016 2.57841 14.7609 3.1499 13.6828 4.38893L13.6781 4.39373L13.6734 4.39854L12.8391 5.35902C12.825 5.37823 12.8062 5.39264 12.7922 5.41185C12.5812 5.62796 12.2953 5.74802 12 5.74802C11.7047 5.74802 11.4188 5.62796 11.2078 5.41185V5.40705Z" fill="#161515"/>
</g></symbol></svg>